<svg width="35" height="31" viewBox="0 0 35 31" fill="none" xmlns="http://www.w3.org/2000/svg">
<path d="M0.533203 0.262808C0.239258 0.413198 0 0.816519 0 1.14464C0 1.48644 0.239258 1.87609 0.546875 2.03332C0.799805 2.1632 0.943359 2.17003 3.05566 2.17003H5.30469L7.77246 10.8243L10.2471 19.4786L10.0488 19.8751C9.70703 20.5519 9.55664 21.0851 9.55664 21.6525C9.55664 23.0743 10.4795 24.2638 11.8604 24.6261C12.1543 24.7013 12.6465 24.7286 13.6719 24.7355C14.9365 24.7423 15.0391 24.7491 14.7314 24.8243C14.1572 24.9679 13.7266 25.214 13.2891 25.6515C12.0791 26.8546 12.0791 28.7482 13.2959 29.9581C15.0596 31.7286 18.0469 30.7648 18.4707 28.2902C18.6348 27.3263 18.3203 26.3693 17.6025 25.6446C17.1719 25.214 16.625 24.8995 16.1123 24.797C15.9482 24.7696 17.9033 24.7423 20.6104 24.7423C24.5752 24.7423 25.334 24.756 25.0537 24.8243C24.4795 24.9679 24.0488 25.214 23.6113 25.6515C22.4014 26.8546 22.4014 28.755 23.6113 29.9581C25.3887 31.7286 28.3691 30.7648 28.793 28.2902C29.0596 26.7384 28.0342 25.2003 26.4893 24.8243C26.1953 24.7491 26.4141 24.7423 28.1162 24.7355C29.9482 24.7286 30.1055 24.7218 30.3516 24.5919C30.6592 24.4347 30.8984 24.045 30.8984 23.7032C30.8984 23.3614 30.6592 22.9718 30.3516 22.8146C30.085 22.6778 29.9688 22.6778 21.2461 22.6778C12.9678 22.6778 12.3936 22.671 12.168 22.5548C11.6143 22.2814 11.4775 21.6798 11.8057 21.003L11.9902 20.6271H21.0342C30.0029 20.6271 30.085 20.6271 30.3584 20.4903C30.5498 20.3878 30.6729 20.2648 30.7617 20.0597C30.9463 19.6769 35 5.43761 35 5.19835C35 4.91808 34.7266 4.49425 34.4531 4.3507C34.2275 4.22765 33.7422 4.22082 21.1162 4.22082H8.01855L7.56055 2.59386C6.99316 0.618277 6.9248 0.447378 6.53516 0.262808C6.25488 0.126089 6.13867 0.119253 3.51367 0.119253C0.936523 0.126089 0.772461 0.132925 0.533203 0.262808ZM32.5801 6.38781C32.5596 6.45617 31.7734 9.22472 30.8232 12.5402L29.1006 18.5763H20.6104H12.1201L10.3975 12.5402C9.44727 9.22472 8.66113 6.45617 8.64062 6.38781C8.60645 6.27843 9.20801 6.2716 20.6104 6.2716C32.0127 6.2716 32.6143 6.27843 32.5801 6.38781ZM15.9277 26.9161C16.2354 27.0734 16.4746 27.463 16.4746 27.8116C16.4746 28.3175 15.9551 28.8302 15.4424 28.8302C15.1279 28.8302 14.7041 28.5636 14.5537 28.2696C14.3008 27.7775 14.458 27.2374 14.9434 26.9435C15.2715 26.7452 15.5723 26.7384 15.9277 26.9161ZM26.25 26.9161C26.5576 27.0734 26.7969 27.463 26.7969 27.8116C26.7969 28.3175 26.2773 28.8302 25.7646 28.8302C25.4502 28.8302 25.0264 28.5636 24.876 28.2696C24.623 27.7775 24.7803 27.2374 25.2656 26.9435C25.5938 26.7452 25.8945 26.7384 26.25 26.9161Z" fill="white"/>
</svg>
