<svg width="249" height="58" viewBox="0 0 249 58" fill="none" xmlns="http://www.w3.org/2000/svg">
<path d="M3 10.5C3 4.97715 7.47715 0.5 13 0.5H43C48.5228 0.5 53 4.97715 53 10.5V40.5C53 46.0228 48.5228 50.5 43 50.5H21.678C20.66 50.5 19.74 51.1067 19.339 52.0423C18.4577 54.0988 15.5423 54.0988 14.661 52.0423C14.26 51.1067 13.34 50.5 12.322 50.5H9.62892C5.96787 50.5 3 47.5321 3 43.8711V10.5Z" fill="#312626"/>
<path d="M17.2666 37.5L8.02664 16.5H11.2666L19.7566 35.88H17.8966L26.4466 16.5H29.4466L20.2366 37.5H17.2666ZM34.8246 26.43H45.6546V29.01H34.8246V26.43ZM35.1246 37.5H32.1246V16.5H46.9446V19.11H35.1246V37.5Z" fill="white"/>
<path d="M72.925 36.5L65.525 19H71.875L77.9 33.775H74.125L80.325 19H86.125L78.725 36.5H72.925ZM87.0254 36.5V22.825H92.6754V36.5H87.0254ZM89.8504 21.725C88.8171 21.725 87.9921 21.45 87.3754 20.9C86.7587 20.35 86.4504 19.6667 86.4504 18.85C86.4504 18.0333 86.7587 17.35 87.3754 16.8C87.9921 16.25 88.8171 15.975 89.8504 15.975C90.8837 15.975 91.7087 16.2333 92.3254 16.75C92.9421 17.2667 93.2504 17.9333 93.2504 18.75C93.2504 19.6167 92.9421 20.3333 92.3254 20.9C91.7087 21.45 90.8837 21.725 89.8504 21.725ZM104.68 22.575C105.73 22.575 106.68 22.7917 107.53 23.225C108.38 23.6417 109.046 24.3 109.53 25.2C110.03 26.1 110.28 27.2667 110.28 28.7V36.5H104.63V29.675C104.63 28.825 104.48 28.225 104.18 27.875C103.88 27.5083 103.471 27.325 102.955 27.325C102.571 27.325 102.213 27.4167 101.88 27.6C101.563 27.7667 101.305 28.05 101.105 28.45C100.921 28.85 100.83 29.3917 100.83 30.075V36.5H95.1797V22.825H100.555V26.825L99.4797 25.675C100.013 24.6417 100.73 23.8667 101.63 23.35C102.546 22.8333 103.563 22.575 104.68 22.575ZM119.333 36.75C117.45 36.75 115.983 36.3 114.933 35.4C113.883 34.4833 113.358 33.0833 113.358 31.2V19.75H119.008V31.15C119.008 31.5667 119.117 31.8917 119.333 32.125C119.567 32.3583 119.85 32.475 120.183 32.475C120.667 32.475 121.092 32.35 121.458 32.1L122.808 36.025C122.375 36.275 121.85 36.4583 121.233 36.575C120.633 36.6917 120 36.75 119.333 36.75ZM111.483 27.7V23.575H121.808V27.7H111.483ZM132.507 36.5V34.075L132.107 33.425V28.825C132.107 28.1583 131.899 27.65 131.482 27.3C131.082 26.95 130.424 26.775 129.507 26.775C128.891 26.775 128.266 26.875 127.632 27.075C126.999 27.2583 126.457 27.5167 126.007 27.85L124.207 24.125C125.007 23.625 125.966 23.2417 127.082 22.975C128.199 22.7083 129.291 22.575 130.357 22.575C132.707 22.575 134.524 23.1 135.807 24.15C137.107 25.2 137.757 26.8667 137.757 29.15V36.5H132.507ZM128.632 36.75C127.516 36.75 126.582 36.5583 125.832 36.175C125.082 35.7917 124.516 35.2833 124.132 34.65C123.749 34 123.557 33.2833 123.557 32.5C123.557 31.6167 123.782 30.8667 124.232 30.25C124.682 29.6333 125.366 29.1667 126.282 28.85C127.216 28.5333 128.391 28.375 129.807 28.375H132.657V31.1H130.707C130.107 31.1 129.666 31.2 129.382 31.4C129.116 31.5833 128.982 31.8667 128.982 32.25C128.982 32.5667 129.099 32.8333 129.332 33.05C129.582 33.25 129.916 33.35 130.332 33.35C130.716 33.35 131.066 33.25 131.382 33.05C131.716 32.8333 131.957 32.5 132.107 32.05L132.832 33.725C132.616 34.7417 132.157 35.5 131.457 36C130.757 36.5 129.816 36.75 128.632 36.75ZM147.393 41.6C146.043 41.6 144.777 41.4583 143.593 41.175C142.41 40.8917 141.393 40.4667 140.543 39.9L142.443 36.05C142.977 36.4667 143.652 36.7917 144.468 37.025C145.302 37.275 146.085 37.4 146.818 37.4C147.985 37.4 148.818 37.15 149.318 36.65C149.818 36.1667 150.068 35.4667 150.068 34.55V33.4L150.318 29.15L150.343 24.9V22.825H155.718V33.775C155.718 36.425 154.985 38.3917 153.518 39.675C152.052 40.9583 150.01 41.6 147.393 41.6ZM146.293 35.75C145.143 35.75 144.068 35.4833 143.068 34.95C142.068 34.4 141.26 33.6333 140.643 32.65C140.027 31.6667 139.718 30.5 139.718 29.15C139.718 27.8 140.027 26.6333 140.643 25.65C141.26 24.6667 142.068 23.9083 143.068 23.375C144.068 22.8417 145.143 22.575 146.293 22.575C147.477 22.575 148.443 22.8083 149.193 23.275C149.96 23.7417 150.527 24.4667 150.893 25.45C151.26 26.4167 151.443 27.65 151.443 29.15C151.443 30.65 151.26 31.8917 150.893 32.875C150.527 33.8417 149.96 34.5667 149.193 35.05C148.443 35.5167 147.477 35.75 146.293 35.75ZM147.793 31.35C148.243 31.35 148.643 31.2583 148.993 31.075C149.343 30.8917 149.618 30.6333 149.818 30.3C150.018 29.9667 150.118 29.5833 150.118 29.15C150.118 28.7 150.018 28.3167 149.818 28C149.618 27.6667 149.343 27.4167 148.993 27.25C148.643 27.0667 148.243 26.975 147.793 26.975C147.36 26.975 146.96 27.0667 146.593 27.25C146.243 27.4167 145.96 27.6667 145.743 28C145.543 28.3167 145.443 28.7 145.443 29.15C145.443 29.5833 145.543 29.9667 145.743 30.3C145.96 30.6333 146.243 30.8917 146.593 31.075C146.96 31.2583 147.36 31.35 147.793 31.35ZM165.767 36.75C164.1 36.75 162.642 36.4417 161.392 35.825C160.158 35.2083 159.2 34.3667 158.517 33.3C157.833 32.2167 157.492 31 157.492 29.65C157.492 28.2667 157.825 27.0417 158.492 25.975C159.175 24.9083 160.1 24.075 161.267 23.475C162.45 22.875 163.775 22.575 165.242 22.575C166.592 22.575 167.833 22.8417 168.967 23.375C170.117 23.9083 171.033 24.7 171.717 25.75C172.417 26.8 172.767 28.1 172.767 29.65C172.767 29.85 172.758 30.075 172.742 30.325C172.725 30.5583 172.708 30.775 172.692 30.975H162.167V28.25H169.692L167.567 28.975C167.567 28.4417 167.467 27.9917 167.267 27.625C167.083 27.2417 166.825 26.95 166.492 26.75C166.158 26.5333 165.758 26.425 165.292 26.425C164.825 26.425 164.417 26.5333 164.067 26.75C163.733 26.95 163.475 27.2417 163.292 27.625C163.108 27.9917 163.017 28.4417 163.017 28.975V29.825C163.017 30.4083 163.133 30.9083 163.367 31.325C163.6 31.7417 163.933 32.0583 164.367 32.275C164.8 32.475 165.325 32.575 165.942 32.575C166.575 32.575 167.092 32.4917 167.492 32.325C167.908 32.1583 168.342 31.9083 168.792 31.575L171.742 34.55C171.075 35.2667 170.25 35.8167 169.267 36.2C168.3 36.5667 167.133 36.75 165.767 36.75ZM187.72 26.45H195.42V30.9H187.72V26.45ZM188.12 36.5H182.22V19H196.445V23.45H188.12V36.5ZM205.115 36.75C203.565 36.75 202.19 36.45 200.99 35.85C199.806 35.2333 198.873 34.3917 198.19 33.325C197.506 32.2583 197.165 31.0333 197.165 29.65C197.165 28.2667 197.506 27.0417 198.19 25.975C198.873 24.9083 199.806 24.075 200.99 23.475C202.19 22.875 203.565 22.575 205.115 22.575C206.665 22.575 208.04 22.875 209.24 23.475C210.44 24.075 211.373 24.9083 212.04 25.975C212.723 27.0417 213.065 28.2667 213.065 29.65C213.065 31.0333 212.723 32.2583 212.04 33.325C211.373 34.3917 210.44 35.2333 209.24 35.85C208.04 36.45 206.665 36.75 205.115 36.75ZM205.115 32.35C205.531 32.35 205.906 32.25 206.24 32.05C206.573 31.85 206.84 31.55 207.04 31.15C207.24 30.7333 207.34 30.2333 207.34 29.65C207.34 29.05 207.24 28.5583 207.04 28.175C206.84 27.775 206.573 27.475 206.24 27.275C205.906 27.075 205.531 26.975 205.115 26.975C204.698 26.975 204.323 27.075 203.99 27.275C203.656 27.475 203.39 27.775 203.19 28.175C202.99 28.5583 202.89 29.05 202.89 29.65C202.89 30.2333 202.99 30.7333 203.19 31.15C203.39 31.55 203.656 31.85 203.99 32.05C204.323 32.25 204.698 32.35 205.115 32.35ZM222.058 36.75C220.508 36.75 219.133 36.45 217.933 35.85C216.75 35.2333 215.816 34.3917 215.133 33.325C214.45 32.2583 214.108 31.0333 214.108 29.65C214.108 28.2667 214.45 27.0417 215.133 25.975C215.816 24.9083 216.75 24.075 217.933 23.475C219.133 22.875 220.508 22.575 222.058 22.575C223.608 22.575 224.983 22.875 226.183 23.475C227.383 24.075 228.316 24.9083 228.983 25.975C229.666 27.0417 230.008 28.2667 230.008 29.65C230.008 31.0333 229.666 32.2583 228.983 33.325C228.316 34.3917 227.383 35.2333 226.183 35.85C224.983 36.45 223.608 36.75 222.058 36.75ZM222.058 32.35C222.475 32.35 222.85 32.25 223.183 32.05C223.516 31.85 223.783 31.55 223.983 31.15C224.183 30.7333 224.283 30.2333 224.283 29.65C224.283 29.05 224.183 28.5583 223.983 28.175C223.783 27.775 223.516 27.475 223.183 27.275C222.85 27.075 222.475 26.975 222.058 26.975C221.641 26.975 221.266 27.075 220.933 27.275C220.6 27.475 220.333 27.775 220.133 28.175C219.933 28.5583 219.833 29.05 219.833 29.65C219.833 30.2333 219.933 30.7333 220.133 31.15C220.333 31.55 220.6 31.85 220.933 32.05C221.266 32.25 221.641 32.35 222.058 32.35ZM237.776 36.75C236.593 36.75 235.493 36.4667 234.476 35.9C233.476 35.3167 232.676 34.5 232.076 33.45C231.476 32.3833 231.176 31.1167 231.176 29.65C231.176 28.1833 231.476 26.925 232.076 25.875C232.676 24.8083 233.476 23.9917 234.476 23.425C235.493 22.8583 236.593 22.575 237.776 22.575C238.976 22.575 239.96 22.8333 240.726 23.35C241.493 23.85 242.06 24.625 242.426 25.675C242.793 26.7083 242.976 28.0333 242.976 29.65C242.976 31.2833 242.801 32.625 242.451 33.675C242.118 34.725 241.568 35.5 240.801 36C240.051 36.5 239.043 36.75 237.776 36.75ZM239.126 32.35C239.543 32.35 239.918 32.25 240.251 32.05C240.585 31.85 240.851 31.55 241.051 31.15C241.251 30.7333 241.351 30.2333 241.351 29.65C241.351 29.05 241.251 28.5583 241.051 28.175C240.851 27.775 240.585 27.475 240.251 27.275C239.918 27.075 239.543 26.975 239.126 26.975C238.71 26.975 238.335 27.075 238.001 27.275C237.668 27.475 237.401 27.775 237.201 28.175C237.001 28.5583 236.901 29.05 236.901 29.65C236.901 30.2333 237.001 30.7333 237.201 31.15C237.401 31.55 237.668 31.85 238.001 32.05C238.335 32.25 238.71 32.35 239.126 32.35ZM241.526 36.5V34.65L241.501 29.65L241.251 24.65V17.95H246.901V36.5H241.526Z" fill="black"/>
</svg>
